<mxfile host="app.diagrams.net" modified="2023-09-15T04:08:23.409Z" agent="Mozilla/5.0 (Windows NT 10.0; Win64; x64) AppleWebKit/537.36 (KHTML, like Gecko) Chrome/116.0.0.0 Safari/537.36" etag="TuC8JqIa72bg0vHdJHNl" version="21.7.5" type="github">
  <diagram id="C5RBs43oDa-KdzZeNtuy" name="Page-1">
    <mxGraphModel dx="819" dy="457" grid="1" gridSize="10" guides="1" tooltips="1" connect="1" arrows="1" fold="1" page="1" pageScale="1" pageWidth="827" pageHeight="1169" math="0" shadow="0">
      <root>
        <mxCell id="WIyWlLk6GJQsqaUBKTNV-0" />
        <mxCell id="WIyWlLk6GJQsqaUBKTNV-1" parent="WIyWlLk6GJQsqaUBKTNV-0" />
        <mxCell id="sTYtrBtoLBsIIDPJl2ga-28" value="" style="rounded=0;whiteSpace=wrap;html=1;dashed=1;strokeWidth=1;fillColor=none;movable=1;resizable=1;rotatable=1;deletable=1;editable=1;locked=0;connectable=1;" vertex="1" parent="WIyWlLk6GJQsqaUBKTNV-1">
          <mxGeometry x="24" y="860" width="160" height="120" as="geometry" />
        </mxCell>
        <mxCell id="WIyWlLk6GJQsqaUBKTNV-3" value="ENTRYPOINT" style="rounded=1;whiteSpace=wrap;html=1;fontSize=12;glass=0;strokeWidth=1;shadow=0;fillColor=#f5f5f5;strokeColor=#666666;gradientColor=#b3b3b3;" parent="WIyWlLk6GJQsqaUBKTNV-1" vertex="1">
          <mxGeometry x="44" y="200" width="120" height="40" as="geometry" />
        </mxCell>
        <mxCell id="sTYtrBtoLBsIIDPJl2ga-1" value="" style="rounded=0;html=1;jettySize=auto;orthogonalLoop=1;fontSize=11;endArrow=block;endFill=0;endSize=8;strokeWidth=1;shadow=0;labelBackgroundColor=none;edgeStyle=orthogonalEdgeStyle;" edge="1" parent="WIyWlLk6GJQsqaUBKTNV-1" source="WIyWlLk6GJQsqaUBKTNV-3" target="sTYtrBtoLBsIIDPJl2ga-0">
          <mxGeometry relative="1" as="geometry">
            <mxPoint x="104" y="520" as="sourcePoint" />
            <mxPoint x="104" y="650" as="targetPoint" />
          </mxGeometry>
        </mxCell>
        <mxCell id="sTYtrBtoLBsIIDPJl2ga-0" value="Load Config" style="rounded=1;whiteSpace=wrap;html=1;fontSize=12;glass=0;strokeWidth=1;shadow=0;fillColor=#f5f5f5;strokeColor=#666666;gradientColor=#b3b3b3;" vertex="1" parent="WIyWlLk6GJQsqaUBKTNV-1">
          <mxGeometry x="44" y="280" width="120" height="40" as="geometry" />
        </mxCell>
        <mxCell id="sTYtrBtoLBsIIDPJl2ga-4" value="" style="rounded=0;html=1;jettySize=auto;orthogonalLoop=1;fontSize=11;endArrow=block;endFill=0;endSize=8;strokeWidth=1;shadow=0;labelBackgroundColor=none;edgeStyle=orthogonalEdgeStyle;" edge="1" parent="WIyWlLk6GJQsqaUBKTNV-1" source="sTYtrBtoLBsIIDPJl2ga-0" target="sTYtrBtoLBsIIDPJl2ga-2">
          <mxGeometry relative="1" as="geometry">
            <mxPoint x="104" y="360" as="sourcePoint" />
            <mxPoint x="104" y="650" as="targetPoint" />
          </mxGeometry>
        </mxCell>
        <mxCell id="sTYtrBtoLBsIIDPJl2ga-6" value="" style="edgeStyle=orthogonalEdgeStyle;rounded=0;orthogonalLoop=1;jettySize=auto;html=1;" edge="1" parent="WIyWlLk6GJQsqaUBKTNV-1" source="sTYtrBtoLBsIIDPJl2ga-2" target="sTYtrBtoLBsIIDPJl2ga-5">
          <mxGeometry relative="1" as="geometry">
            <Array as="points">
              <mxPoint x="264" y="380" />
            </Array>
          </mxGeometry>
        </mxCell>
        <mxCell id="sTYtrBtoLBsIIDPJl2ga-2" value="Load Plugins" style="rounded=1;whiteSpace=wrap;html=1;fontSize=12;glass=0;strokeWidth=1;shadow=0;fillColor=#ffcd28;strokeColor=#d79b00;gradientColor=#ffa500;" vertex="1" parent="WIyWlLk6GJQsqaUBKTNV-1">
          <mxGeometry x="44" y="360" width="120" height="40" as="geometry" />
        </mxCell>
        <mxCell id="sTYtrBtoLBsIIDPJl2ga-20" style="edgeStyle=orthogonalEdgeStyle;rounded=0;orthogonalLoop=1;jettySize=auto;html=1;exitX=0;exitY=0.5;exitDx=0;exitDy=0;entryX=0.5;entryY=0;entryDx=0;entryDy=0;" edge="1" parent="WIyWlLk6GJQsqaUBKTNV-1" source="sTYtrBtoLBsIIDPJl2ga-5" target="sTYtrBtoLBsIIDPJl2ga-12">
          <mxGeometry relative="1" as="geometry" />
        </mxCell>
        <mxCell id="sTYtrBtoLBsIIDPJl2ga-5" value="Load Plugin&lt;br&gt;Settings" style="rounded=1;whiteSpace=wrap;html=1;fontSize=12;glass=0;strokeWidth=1;shadow=0;fillColor=#ffcd28;gradientColor=#ffa500;strokeColor=#d79b00;" vertex="1" parent="WIyWlLk6GJQsqaUBKTNV-1">
          <mxGeometry x="204" y="400" width="120" height="40" as="geometry" />
        </mxCell>
        <mxCell id="sTYtrBtoLBsIIDPJl2ga-22" style="edgeStyle=orthogonalEdgeStyle;rounded=0;orthogonalLoop=1;jettySize=auto;html=1;exitX=0.5;exitY=1;exitDx=0;exitDy=0;entryX=0.5;entryY=0;entryDx=0;entryDy=0;" edge="1" parent="WIyWlLk6GJQsqaUBKTNV-1" source="sTYtrBtoLBsIIDPJl2ga-12" target="sTYtrBtoLBsIIDPJl2ga-14">
          <mxGeometry relative="1" as="geometry" />
        </mxCell>
        <mxCell id="sTYtrBtoLBsIIDPJl2ga-12" value="Initialize Database" style="rounded=1;whiteSpace=wrap;html=1;fontSize=12;glass=0;strokeWidth=1;shadow=0;fillColor=#dae8fc;gradientColor=#7ea6e0;strokeColor=#6c8ebf;" vertex="1" parent="WIyWlLk6GJQsqaUBKTNV-1">
          <mxGeometry x="44" y="440" width="120" height="40" as="geometry" />
        </mxCell>
        <mxCell id="sTYtrBtoLBsIIDPJl2ga-14" value="&lt;font style=&quot;font-size: 9px;&quot;&gt;DB.Version&amp;nbsp;&lt;br style=&quot;&quot;&gt;==&amp;nbsp;&lt;br&gt;TO.Version&lt;/font&gt;" style="rhombus;whiteSpace=wrap;html=1;shadow=0;fontFamily=Helvetica;fontSize=12;align=center;strokeWidth=1;spacing=6;spacingTop=-4;fillColor=#dae8fc;gradientColor=#7ea6e0;strokeColor=#6c8ebf;" vertex="1" parent="WIyWlLk6GJQsqaUBKTNV-1">
          <mxGeometry x="54" y="520" width="100" height="80" as="geometry" />
        </mxCell>
        <mxCell id="sTYtrBtoLBsIIDPJl2ga-16" value="No" style="edgeStyle=orthogonalEdgeStyle;rounded=0;html=1;jettySize=auto;orthogonalLoop=1;fontSize=11;endArrow=block;endFill=0;endSize=8;strokeWidth=1;shadow=0;labelBackgroundColor=none;" edge="1" parent="WIyWlLk6GJQsqaUBKTNV-1">
          <mxGeometry y="10" relative="1" as="geometry">
            <mxPoint as="offset" />
            <mxPoint x="154" y="559.76" as="sourcePoint" />
            <mxPoint x="204" y="559.76" as="targetPoint" />
          </mxGeometry>
        </mxCell>
        <mxCell id="sTYtrBtoLBsIIDPJl2ga-23" style="edgeStyle=orthogonalEdgeStyle;rounded=0;orthogonalLoop=1;jettySize=auto;html=1;exitX=0.5;exitY=1;exitDx=0;exitDy=0;" edge="1" parent="WIyWlLk6GJQsqaUBKTNV-1" source="sTYtrBtoLBsIIDPJl2ga-17">
          <mxGeometry relative="1" as="geometry">
            <mxPoint x="104" y="640" as="targetPoint" />
            <Array as="points">
              <mxPoint x="264" y="600" />
              <mxPoint x="105" y="600" />
              <mxPoint x="105" y="640" />
            </Array>
          </mxGeometry>
        </mxCell>
        <mxCell id="sTYtrBtoLBsIIDPJl2ga-24" value="Yes" style="edgeLabel;html=1;align=center;verticalAlign=middle;resizable=0;points=[];" vertex="1" connectable="0" parent="sTYtrBtoLBsIIDPJl2ga-23">
          <mxGeometry x="0.4342" y="2" relative="1" as="geometry">
            <mxPoint x="-42" y="8" as="offset" />
          </mxGeometry>
        </mxCell>
        <mxCell id="sTYtrBtoLBsIIDPJl2ga-17" value="- Drop tables&lt;br&gt;- Create tables" style="rounded=1;whiteSpace=wrap;html=1;fontSize=12;glass=0;strokeWidth=1;shadow=0;fillColor=#dae8fc;gradientColor=#7ea6e0;strokeColor=#6c8ebf;" vertex="1" parent="WIyWlLk6GJQsqaUBKTNV-1">
          <mxGeometry x="204" y="540" width="120" height="40" as="geometry" />
        </mxCell>
        <mxCell id="sTYtrBtoLBsIIDPJl2ga-30" style="edgeStyle=orthogonalEdgeStyle;rounded=0;orthogonalLoop=1;jettySize=auto;html=1;exitX=0.5;exitY=1;exitDx=0;exitDy=0;entryX=0.5;entryY=0;entryDx=0;entryDy=0;" edge="1" parent="WIyWlLk6GJQsqaUBKTNV-1" source="sTYtrBtoLBsIIDPJl2ga-25" target="sTYtrBtoLBsIIDPJl2ga-26">
          <mxGeometry relative="1" as="geometry" />
        </mxCell>
        <mxCell id="sTYtrBtoLBsIIDPJl2ga-25" value="Create Interface" style="rounded=1;whiteSpace=wrap;html=1;fontSize=12;glass=0;strokeWidth=1;shadow=0;fillColor=#e6d0de;strokeColor=#996185;gradientColor=#d5739d;" vertex="1" parent="WIyWlLk6GJQsqaUBKTNV-1">
          <mxGeometry x="44" y="640" width="120" height="40" as="geometry" />
        </mxCell>
        <mxCell id="sTYtrBtoLBsIIDPJl2ga-32" value="" style="edgeStyle=orthogonalEdgeStyle;rounded=0;orthogonalLoop=1;jettySize=auto;html=1;" edge="1" parent="WIyWlLk6GJQsqaUBKTNV-1" source="sTYtrBtoLBsIIDPJl2ga-26" target="sTYtrBtoLBsIIDPJl2ga-31">
          <mxGeometry relative="1" as="geometry" />
        </mxCell>
        <mxCell id="sTYtrBtoLBsIIDPJl2ga-26" value="Initial Scrape:&lt;br&gt;&lt;font style=&quot;font-size: 10px;&quot;&gt;GAME, RANK &amp;amp;&amp;nbsp;SCORE&lt;/font&gt;" style="rounded=1;whiteSpace=wrap;html=1;fontSize=12;glass=0;strokeWidth=1;shadow=0;fillColor=#d5e8d4;strokeColor=#82b366;gradientColor=#97d077;" vertex="1" parent="WIyWlLk6GJQsqaUBKTNV-1">
          <mxGeometry x="44" y="720" width="120" height="40" as="geometry" />
        </mxCell>
        <mxCell id="sTYtrBtoLBsIIDPJl2ga-29" value="Main Loop" style="text;strokeColor=none;fillColor=none;align=left;verticalAlign=middle;spacingLeft=4;spacingRight=4;overflow=hidden;points=[[0,0.5],[1,0.5]];portConstraint=eastwest;rotatable=0;whiteSpace=wrap;html=1;" vertex="1" parent="WIyWlLk6GJQsqaUBKTNV-1">
          <mxGeometry x="184" y="860" width="80" height="20" as="geometry" />
        </mxCell>
        <mxCell id="sTYtrBtoLBsIIDPJl2ga-34" style="edgeStyle=orthogonalEdgeStyle;rounded=0;orthogonalLoop=1;jettySize=auto;html=1;exitX=0.5;exitY=1;exitDx=0;exitDy=0;entryX=0.5;entryY=0;entryDx=0;entryDy=0;" edge="1" parent="WIyWlLk6GJQsqaUBKTNV-1" source="sTYtrBtoLBsIIDPJl2ga-31" target="sTYtrBtoLBsIIDPJl2ga-33">
          <mxGeometry relative="1" as="geometry" />
        </mxCell>
        <mxCell id="sTYtrBtoLBsIIDPJl2ga-31" value="Secondary Scrape:&lt;br&gt;&lt;font style=&quot;font-size: 10px;&quot;&gt;CHEEVOS FROM GAME&lt;/font&gt;" style="rounded=1;whiteSpace=wrap;html=1;fontSize=12;glass=0;strokeWidth=1;shadow=0;fillColor=#d5e8d4;strokeColor=#82b366;gradientColor=#97d077;" vertex="1" parent="WIyWlLk6GJQsqaUBKTNV-1">
          <mxGeometry x="44" y="800" width="120" height="40" as="geometry" />
        </mxCell>
        <mxCell id="sTYtrBtoLBsIIDPJl2ga-33" value="&lt;font style=&quot;font-size: 11px;&quot;&gt;Periodic Scrape:&lt;br&gt;&lt;/font&gt;&lt;font style=&quot;&quot;&gt;&lt;font style=&quot;&quot;&gt;&lt;span style=&quot;font-size: 11px;&quot;&gt;PENDING CHEEVOS&amp;nbsp;&lt;/span&gt;&lt;br&gt;&lt;font style=&quot;font-size: 7px;&quot;&gt;(ONE REQUEST PER CHEEVO)&lt;/font&gt;&lt;/font&gt;&lt;br&gt;&lt;/font&gt;" style="rounded=1;whiteSpace=wrap;html=1;fontSize=12;glass=0;strokeWidth=1;shadow=0;fillColor=#d5e8d4;strokeColor=#82b366;gradientColor=#97d077;" vertex="1" parent="WIyWlLk6GJQsqaUBKTNV-1">
          <mxGeometry x="44" y="880" width="120" height="80" as="geometry" />
        </mxCell>
        <mxCell id="sTYtrBtoLBsIIDPJl2ga-35" value="" style="rounded=0;whiteSpace=wrap;html=1;dashed=1;strokeWidth=1;fillColor=none;movable=1;resizable=1;rotatable=1;deletable=1;editable=1;locked=0;connectable=1;" vertex="1" parent="WIyWlLk6GJQsqaUBKTNV-1">
          <mxGeometry x="504" y="700" width="160" height="120" as="geometry" />
        </mxCell>
        <mxCell id="sTYtrBtoLBsIIDPJl2ga-36" value="ENTRYPOINT" style="rounded=1;whiteSpace=wrap;html=1;fontSize=12;glass=0;strokeWidth=1;shadow=0;fillColor=#f5f5f5;strokeColor=#666666;gradientColor=#b3b3b3;" vertex="1" parent="WIyWlLk6GJQsqaUBKTNV-1">
          <mxGeometry x="524" y="200" width="120" height="40" as="geometry" />
        </mxCell>
        <mxCell id="sTYtrBtoLBsIIDPJl2ga-37" value="" style="rounded=0;html=1;jettySize=auto;orthogonalLoop=1;fontSize=11;endArrow=block;endFill=0;endSize=8;strokeWidth=1;shadow=0;labelBackgroundColor=none;edgeStyle=orthogonalEdgeStyle;" edge="1" parent="WIyWlLk6GJQsqaUBKTNV-1" source="sTYtrBtoLBsIIDPJl2ga-36" target="sTYtrBtoLBsIIDPJl2ga-38">
          <mxGeometry relative="1" as="geometry">
            <mxPoint x="584" y="520" as="sourcePoint" />
            <mxPoint x="584" y="650" as="targetPoint" />
          </mxGeometry>
        </mxCell>
        <mxCell id="sTYtrBtoLBsIIDPJl2ga-38" value="Load Config" style="rounded=1;whiteSpace=wrap;html=1;fontSize=12;glass=0;strokeWidth=1;shadow=0;fillColor=#f5f5f5;strokeColor=#666666;gradientColor=#b3b3b3;" vertex="1" parent="WIyWlLk6GJQsqaUBKTNV-1">
          <mxGeometry x="524" y="280" width="120" height="40" as="geometry" />
        </mxCell>
        <mxCell id="sTYtrBtoLBsIIDPJl2ga-39" value="" style="rounded=0;html=1;jettySize=auto;orthogonalLoop=1;fontSize=11;endArrow=block;endFill=0;endSize=8;strokeWidth=1;shadow=0;labelBackgroundColor=none;edgeStyle=orthogonalEdgeStyle;" edge="1" parent="WIyWlLk6GJQsqaUBKTNV-1" source="sTYtrBtoLBsIIDPJl2ga-38" target="sTYtrBtoLBsIIDPJl2ga-41">
          <mxGeometry relative="1" as="geometry">
            <mxPoint x="584" y="360" as="sourcePoint" />
            <mxPoint x="584" y="650" as="targetPoint" />
          </mxGeometry>
        </mxCell>
        <mxCell id="sTYtrBtoLBsIIDPJl2ga-40" value="" style="edgeStyle=orthogonalEdgeStyle;rounded=0;orthogonalLoop=1;jettySize=auto;html=1;" edge="1" parent="WIyWlLk6GJQsqaUBKTNV-1" source="sTYtrBtoLBsIIDPJl2ga-41" target="sTYtrBtoLBsIIDPJl2ga-43">
          <mxGeometry relative="1" as="geometry">
            <Array as="points">
              <mxPoint x="744" y="380" />
            </Array>
          </mxGeometry>
        </mxCell>
        <mxCell id="sTYtrBtoLBsIIDPJl2ga-41" value="Load Plugins" style="rounded=1;whiteSpace=wrap;html=1;fontSize=12;glass=0;strokeWidth=1;shadow=0;fillColor=#ffcd28;strokeColor=#d79b00;gradientColor=#ffa500;" vertex="1" parent="WIyWlLk6GJQsqaUBKTNV-1">
          <mxGeometry x="524" y="360" width="120" height="40" as="geometry" />
        </mxCell>
        <mxCell id="sTYtrBtoLBsIIDPJl2ga-42" style="edgeStyle=orthogonalEdgeStyle;rounded=0;orthogonalLoop=1;jettySize=auto;html=1;exitX=0;exitY=0.5;exitDx=0;exitDy=0;entryX=0.5;entryY=0;entryDx=0;entryDy=0;" edge="1" parent="WIyWlLk6GJQsqaUBKTNV-1" source="sTYtrBtoLBsIIDPJl2ga-43" target="sTYtrBtoLBsIIDPJl2ga-45">
          <mxGeometry relative="1" as="geometry" />
        </mxCell>
        <mxCell id="sTYtrBtoLBsIIDPJl2ga-43" value="Load Plugin&lt;br&gt;Settings" style="rounded=1;whiteSpace=wrap;html=1;fontSize=12;glass=0;strokeWidth=1;shadow=0;fillColor=#ffcd28;gradientColor=#ffa500;strokeColor=#d79b00;" vertex="1" parent="WIyWlLk6GJQsqaUBKTNV-1">
          <mxGeometry x="684" y="400" width="120" height="40" as="geometry" />
        </mxCell>
        <mxCell id="sTYtrBtoLBsIIDPJl2ga-44" style="edgeStyle=orthogonalEdgeStyle;rounded=0;orthogonalLoop=1;jettySize=auto;html=1;exitX=0.5;exitY=1;exitDx=0;exitDy=0;entryX=0.5;entryY=0;entryDx=0;entryDy=0;" edge="1" parent="WIyWlLk6GJQsqaUBKTNV-1" source="sTYtrBtoLBsIIDPJl2ga-45" target="sTYtrBtoLBsIIDPJl2ga-46">
          <mxGeometry relative="1" as="geometry" />
        </mxCell>
        <mxCell id="sTYtrBtoLBsIIDPJl2ga-45" value="Initialize Database" style="rounded=1;whiteSpace=wrap;html=1;fontSize=12;glass=0;strokeWidth=1;shadow=0;fillColor=#dae8fc;gradientColor=#7ea6e0;strokeColor=#6c8ebf;" vertex="1" parent="WIyWlLk6GJQsqaUBKTNV-1">
          <mxGeometry x="524" y="440" width="120" height="40" as="geometry" />
        </mxCell>
        <mxCell id="sTYtrBtoLBsIIDPJl2ga-46" value="&lt;font style=&quot;font-size: 9px;&quot;&gt;DB.Version&amp;nbsp;&lt;br style=&quot;&quot;&gt;==&amp;nbsp;&lt;br&gt;TO.Version&lt;/font&gt;" style="rhombus;whiteSpace=wrap;html=1;shadow=0;fontFamily=Helvetica;fontSize=12;align=center;strokeWidth=1;spacing=6;spacingTop=-4;fillColor=#dae8fc;gradientColor=#7ea6e0;strokeColor=#6c8ebf;" vertex="1" parent="WIyWlLk6GJQsqaUBKTNV-1">
          <mxGeometry x="534" y="520" width="100" height="80" as="geometry" />
        </mxCell>
        <mxCell id="sTYtrBtoLBsIIDPJl2ga-47" value="No" style="edgeStyle=orthogonalEdgeStyle;rounded=0;html=1;jettySize=auto;orthogonalLoop=1;fontSize=11;endArrow=block;endFill=0;endSize=8;strokeWidth=1;shadow=0;labelBackgroundColor=none;" edge="1" parent="WIyWlLk6GJQsqaUBKTNV-1">
          <mxGeometry y="10" relative="1" as="geometry">
            <mxPoint as="offset" />
            <mxPoint x="634" y="559.76" as="sourcePoint" />
            <mxPoint x="684" y="559.76" as="targetPoint" />
          </mxGeometry>
        </mxCell>
        <mxCell id="sTYtrBtoLBsIIDPJl2ga-48" style="edgeStyle=orthogonalEdgeStyle;rounded=0;orthogonalLoop=1;jettySize=auto;html=1;exitX=0.5;exitY=1;exitDx=0;exitDy=0;" edge="1" parent="WIyWlLk6GJQsqaUBKTNV-1" source="sTYtrBtoLBsIIDPJl2ga-50">
          <mxGeometry relative="1" as="geometry">
            <mxPoint x="584" y="640" as="targetPoint" />
            <Array as="points">
              <mxPoint x="744" y="600" />
              <mxPoint x="585" y="600" />
              <mxPoint x="585" y="640" />
            </Array>
          </mxGeometry>
        </mxCell>
        <mxCell id="sTYtrBtoLBsIIDPJl2ga-49" value="Yes" style="edgeLabel;html=1;align=center;verticalAlign=middle;resizable=0;points=[];" vertex="1" connectable="0" parent="sTYtrBtoLBsIIDPJl2ga-48">
          <mxGeometry x="0.4342" y="2" relative="1" as="geometry">
            <mxPoint x="-42" y="8" as="offset" />
          </mxGeometry>
        </mxCell>
        <mxCell id="sTYtrBtoLBsIIDPJl2ga-50" value="- Drop tables&lt;br&gt;- Create tables" style="rounded=1;whiteSpace=wrap;html=1;fontSize=12;glass=0;strokeWidth=1;shadow=0;fillColor=#dae8fc;gradientColor=#7ea6e0;strokeColor=#6c8ebf;" vertex="1" parent="WIyWlLk6GJQsqaUBKTNV-1">
          <mxGeometry x="684" y="540" width="120" height="40" as="geometry" />
        </mxCell>
        <mxCell id="sTYtrBtoLBsIIDPJl2ga-53" style="edgeStyle=orthogonalEdgeStyle;rounded=0;orthogonalLoop=1;jettySize=auto;html=1;exitX=0.5;exitY=1;exitDx=0;exitDy=0;entryX=0.5;entryY=0;entryDx=0;entryDy=0;" edge="1" parent="WIyWlLk6GJQsqaUBKTNV-1" source="sTYtrBtoLBsIIDPJl2ga-54" target="sTYtrBtoLBsIIDPJl2ga-56">
          <mxGeometry relative="1" as="geometry" />
        </mxCell>
        <mxCell id="sTYtrBtoLBsIIDPJl2ga-54" value="Create Interface" style="rounded=1;whiteSpace=wrap;html=1;fontSize=12;glass=0;strokeWidth=1;shadow=0;fillColor=#e6d0de;strokeColor=#996185;gradientColor=#d5739d;" vertex="1" parent="WIyWlLk6GJQsqaUBKTNV-1">
          <mxGeometry x="524" y="640" width="120" height="40" as="geometry" />
        </mxCell>
        <mxCell id="sTYtrBtoLBsIIDPJl2ga-56" value="Periodic Scrape:&lt;br&gt;&lt;font style=&quot;font-size: 10px;&quot;&gt;GAME, RANK, SCORE &amp;amp; CHEEVOS&lt;br&gt;&lt;/font&gt;" style="rounded=1;whiteSpace=wrap;html=1;fontSize=12;glass=0;strokeWidth=1;shadow=0;fillColor=#d5e8d4;strokeColor=#82b366;gradientColor=#97d077;" vertex="1" parent="WIyWlLk6GJQsqaUBKTNV-1">
          <mxGeometry x="524" y="720" width="120" height="70" as="geometry" />
        </mxCell>
        <mxCell id="sTYtrBtoLBsIIDPJl2ga-57" value="Main Loop" style="text;strokeColor=none;fillColor=none;align=left;verticalAlign=middle;spacingLeft=4;spacingRight=4;overflow=hidden;points=[[0,0.5],[1,0.5]];portConstraint=eastwest;rotatable=0;whiteSpace=wrap;html=1;" vertex="1" parent="WIyWlLk6GJQsqaUBKTNV-1">
          <mxGeometry x="664" y="700" width="80" height="20" as="geometry" />
        </mxCell>
        <mxCell id="sTYtrBtoLBsIIDPJl2ga-61" value="" style="shape=flexArrow;endArrow=classic;html=1;rounded=0;" edge="1" parent="WIyWlLk6GJQsqaUBKTNV-1">
          <mxGeometry width="50" height="50" relative="1" as="geometry">
            <mxPoint x="484" y="559" as="sourcePoint" />
            <mxPoint x="364" y="559.29" as="targetPoint" />
          </mxGeometry>
        </mxCell>
        <mxCell id="sTYtrBtoLBsIIDPJl2ga-63" value="" style="endArrow=none;dashed=1;html=1;dashPattern=1 3;strokeWidth=2;rounded=0;exitX=1;exitY=0.5;exitDx=0;exitDy=0;" edge="1" parent="WIyWlLk6GJQsqaUBKTNV-1" source="sTYtrBtoLBsIIDPJl2ga-26">
          <mxGeometry width="50" height="50" relative="1" as="geometry">
            <mxPoint x="330" y="710" as="sourcePoint" />
            <mxPoint x="320" y="680" as="targetPoint" />
            <Array as="points">
              <mxPoint x="320" y="740" />
            </Array>
          </mxGeometry>
        </mxCell>
        <mxCell id="sTYtrBtoLBsIIDPJl2ga-66" value="Refresh (Action)" style="text;html=1;align=center;verticalAlign=middle;resizable=0;points=[];autosize=1;strokeColor=#b85450;fillColor=#f8cecc;gradientColor=#ea6b66;" vertex="1" parent="WIyWlLk6GJQsqaUBKTNV-1">
          <mxGeometry x="264" y="650" width="110" height="30" as="geometry" />
        </mxCell>
      </root>
    </mxGraphModel>
  </diagram>
</mxfile>
